<svg xmlns="http://www.w3.org/2000/svg" viewBox="0 0 100 100">
  <defs>
    <radialGradient id="heartGrad" cx="50%" cy="50%" r="50%">
      <stop offset="0%" style="stop-color:#c9a227;stop-opacity:1" />
      <stop offset="100%" style="stop-color:#7a1c1c;stop-opacity:1" />
    </radialGradient>
  </defs>
  <path d="M50 85 C50 85 10 55 10 32 C10 18 20 10 35 10 C42 10 48 14 50 18 C52 14 58 10 65 10 C80 10 90 18 90 32 C90 55 50 85 50 85Z" fill="url(#heartGrad)"/>
  <path d="M50 25 L52 31 L58 31 L53 35 L55 41 L50 37 L45 41 L47 35 L42 31 L48 31Z" fill="#f4efe6" opacity="0.9"/>
</svg>
